<svg xmlns="http://www.w3.org/2000/svg" viewBox="0 0 355.82 39.98"><defs><style>.cls-1,.cls-2{fill:#fff;}.cls-1{fill-rule:evenodd;}</style></defs><g id="Layer_2" data-name="Layer 2"><g id="Layer_1-2" data-name="Layer 1"><path class="cls-1" d="M63.36,2.6a17.66,17.66,0,0,1-9.5,2.68c-7,0-15.22-3.4-21.87-3.4C20.33,1.88,9,9.65,9,17c0,4.43,3.89,7,8.23,7,7.69,0,15-5.65,15-10.77,0-5.58-7.65-5.3-11.55-2.32-1.07.8-.27,1.1.48.58,3.94-2.77,10.25-2.75,10.25,1.79,0,5.07-7.58,9.94-14.16,9.94-4.66,0-7.21-3.11-7.21-6.23,0-6.09,9.42-13.28,18.59-13.28,6.63,0,11.38,2.73,20.52,2.89-4.93,1.58-11.75,5.52-18.47,16-7,10.89-13.34,16.24-21.38,16.24A9.55,9.55,0,0,1,.73,33.39c-.52-1-1-.7-.59.27A10.17,10.17,0,0,0,9.5,39.8c9.44,0,18.16-7.83,23.89-16.38,7.69-11.44,13.15-15.8,18-16.8,5.41-.27,9.92-1.3,12.5-3.48.64-.54.25-1.08-.58-.54"/><path class="cls-1" d="M59.44,11.63c-1.56.5-3.83,2.16-6.95,4.79a153.32,153.32,0,0,0-12,11.41,37.85,37.85,0,0,1,8.91-4.7c2.16-.64,3.56.33,2.73,2.12-.68,1.46-2.6,3.39-4.9,5.55-2.14,2-4,3.72-4.91,5.21-.56.92,0,1.36.91,1.06,1.8-.55,4-2.23,6.7-4.39,4-6.11,10.71-9.84,13.46-9.84,1.56,0,1.92,1.09,1.36,2.15-1.2,2.34-5.87,4.69-8.63,4.21a25.91,25.91,0,0,0-4.71,5.72c-.8,1.43-.44,2.28.46,2.28,2.9,0,6.93-3.13,10.72-6.61.6-.54,1.09-.15.47.4-2.27,2.05-7.42,6.93-11.35,6.93-2.35,0-3-1.89-2.31-3.94-2.14,1.69-5.21,4-7.25,4a1.66,1.66,0,0,1-1.75-1.83c0-1.51,1.62-3.65,3.52-5.54s5.33-4.48,6.5-6c.6-.79.15-1.13-.79-.82A35,35,0,0,0,37.8,31.18a50.63,50.63,0,0,0-5.13,6.41c-.45.67-.79.58-1-.05a2.18,2.18,0,0,1,.13-1.68c4.23-7.53,13.61-16.12,19.23-20.69,3.12-2.54,5.71-3.85,8.36-3.85.3,0,.42.18,0,.31M56.57,28.77c3,.24,6.79-3.12,7.5-4.48.38-.69,0-1-.76-.67C62,24.17,58.4,27,56.57,28.77"/><path class="cls-2" d="M131.68,39.25H99.94v-2a3.11,3.11,0,0,1,3.34-3.17h2.13v-16l-2.51,6c-2.53,6.08-5.16,12.38-5.4,12.92a2.43,2.43,0,0,1-2.25,1.65A2.5,2.5,0,0,1,93,37.05c-.09-.19-.65-1.53-2.81-6.73-1.42-3.4-3.21-7.7-4.79-11.46V34.09h2.12a3.16,3.16,0,0,1,3.35,3.17v2H73.46v-2a3.11,3.11,0,0,1,3.34-3.17h2.13V6.52H76.8a3.15,3.15,0,0,1-3.34-3.17v-2H85.08a3.83,3.83,0,0,1,3.71,2.81l0,.09c.77,2,5.32,13.28,7.8,19.45,1.23-3,3-7.42,4.42-11,1.71-4.27,3.31-8.28,3.58-8.92a3.84,3.84,0,0,1,3.83-2.43h11.61v2a3.16,3.16,0,0,1-3.35,3.17h-2.13V34.08h2.13a3.65,3.65,0,0,1,1.46.28,3.81,3.81,0,0,1,1.44-.28h1.56c1.34-3,11.64-29.94,12.56-32.37A2.47,2.47,0,0,1,136,0a2.52,2.52,0,0,1,2.32,1.74c.32.8,1,2.37,1.76,4.41l.11.27c3.12,7.82,8.89,22.28,11.17,27.65.29,0,.72,0,.89,0h.6a3.16,3.16,0,0,1,3.35,3.17v2H138.39v-2a3.16,3.16,0,0,1,3.35-3.17h0L139.41,28H130c-1.17,3.07-1.87,4.93-2.28,6.05h.58a3.15,3.15,0,0,1,3.34,3.17Zm7.57-.86h16.12V37.26A2.3,2.3,0,0,0,152.88,35h-.6a5.48,5.48,0,0,1-1.5-.12l-.09-.2c-2.2-5.19-8.1-20-11.26-27.89l-.12-.28c-.81-2-1.43-3.6-1.76-4.4A1.66,1.66,0,0,0,136,.86,1.63,1.63,0,0,0,134.54,2c-.93,2.44-11.32,29.66-12.6,32.45a1.81,1.81,0,0,1-.14.26l-.12.21h-2.07a2.8,2.8,0,0,0-1.25.27l-.19.09-.19-.09a2.89,2.89,0,0,0-1.27-.27h-1.43c-.25,0-.76,0-1.16,0l-.4,0V5.66h3a2.28,2.28,0,0,0,2.49-2.31V2.22H108.45a3,3,0,0,0-3,1.91c-.26.63-1.87,4.64-3.57,8.88-1.61,4-3.6,9-4.82,12l-.4,1-.4-1C93.86,19.18,88.83,6.65,88,4.58l0-.09a3,3,0,0,0-2.91-2.27H74.31V3.35A2.28,2.28,0,0,0,76.8,5.66h2.57l.42,0V34.92l-.41,0H76.8a2.28,2.28,0,0,0-2.49,2.31v1.13H90V37.26A2.28,2.28,0,0,0,87.52,35H85l-.41,0V14.6l.83,2C87.1,20.71,89.3,26,91,30c1.88,4.51,2.71,6.51,2.8,6.69a1.63,1.63,0,0,0,1.48,1.16,1.59,1.59,0,0,0,1.46-1.13c.24-.54,2.86-6.83,5.4-12.92l4.16-10V34.9l-.4,0c-.39,0-.91,0-1.15,0h-1.44a2.27,2.27,0,0,0-2.48,2.31v1.13h30V37.26A2.3,2.3,0,0,0,128.34,35h-1.81l.21-.58c.38-1,1.13-3,2.61-6.91l.1-.28H140l3,7.76h-1.3a2.28,2.28,0,0,0-2.49,2.31Z"/><path class="cls-2" d="M138.42,23.17H131l.23-.59c1.14-3,2.25-5.85,3.07-8l.39-1Zm-6.19-.87h4.93L134.67,16l-2.44,6.34"/><path class="cls-2" d="M292.22,13.59l-.4,1c-.82,2.1-1.93,5-3.07,8l-.22.59H296Zm0,2.37,2.48,6.35h-4.93L292.22,16"/><path class="cls-2" d="M198.2,13.6l-.39,1c-.82,2.11-1.94,5-3.07,8l-.22.59H202Zm0,2.36,2.48,6.35h-4.92L198.21,16"/><path class="cls-2" d="M182.93,24.57a2.58,2.58,0,0,0-4.5,1.34c-1,5.15-3.86,7.76-8.39,7.76s-9-4.54-9-13.21c0-12.76,7-13.75,9.15-13.75,4.15,0,7.69,4.21,7.86,7.68a3.16,3.16,0,0,0,3.17,3.35h2V1.13h-2a3.06,3.06,0,0,0-2.92,1.94A17.91,17.91,0,0,0,169.4.8c-8.83,0-18,7.48-18,20S160.7,40,169.43,40c8.31,0,13.42-6.63,14.18-13.17a2.89,2.89,0,0,0-.68-2.24m-.18,2.14c-.71,6.17-5.51,12.4-13.32,12.4-8.31,0-17.14-6.42-17.14-18.32S161,1.66,169.4,1.66a16.9,16.9,0,0,1,8.9,2.43l.52.32.12-.6A2.21,2.21,0,0,1,181.19,2h1.13V16.88h-1.13a2.29,2.29,0,0,1-2.32-2.51c-.18-3.94-4-8.52-8.71-8.52-2.35,0-10,1.05-10,14.61,0,9.24,5,14.07,9.9,14.07s8.1-2.84,9.23-8.45a1.72,1.72,0,0,1,3-.94,2,2,0,0,1,.46,1.57"/><path class="cls-2" d="M331.55,1.37v2a3.15,3.15,0,0,0,3.34,3.17H337V21.27c-2-2.7-4.54-6-6.88-9.1l-.25-.33c-2.79-3.68-5.43-7.15-6.07-8.06s-1.73-2.41-3.65-2.41H310v2a3.15,3.15,0,0,0,3.34,3.17h2.12V34.09c-.16,0-.34,0-.4,0h-1.72a3.89,3.89,0,0,1-2.9,0h-.6c-.17,0-.6,0-.88,0C306.61,28.59,300.75,13.92,297.6,6l-.17-.41c-.71-1.76-1.24-3.11-1.53-3.84A2.53,2.53,0,0,0,293.57,0a2.45,2.45,0,0,0-2.29,1.72c-.92,2.44-11.26,29.5-12.56,32.37H277V25.17h-2l-.25,0A3,3,0,0,0,272,27.61c0,.22-.06.48-.09.77a10.11,10.11,0,0,1-1,4,3.81,3.81,0,0,1-3.61,1.69h-6.63V6.59h2.13a3.16,3.16,0,0,0,3.35-3.17v-2H246v2a3.15,3.15,0,0,0,3.34,3.17h2.13v27.5h-2.13a3.48,3.48,0,0,0-2.28.79V25.17h-2A3,3,0,0,0,242,27.61c0,.22-.05.48-.08.77a10.11,10.11,0,0,1-1,4,3.82,3.82,0,0,1-3.62,1.69H230.7V6.59h2.13a3.15,3.15,0,0,0,3.34-3.17v-2H216.05v2a3.16,3.16,0,0,0,3.35,3.17h2.13v27.5H219.4a3.64,3.64,0,0,0-1.49.3,3.69,3.69,0,0,0-1.5-.3h-.6c-.17,0-.6,0-.88,0-2.29-5.37-8.05-19.83-11.18-27.66-.87-2.17-1.53-3.83-1.86-4.67A2.52,2.52,0,0,0,199.56,0a2.46,2.46,0,0,0-2.29,1.72C196.42,4,186,31.14,184.71,34.09h-1.56a3.15,3.15,0,0,0-3.34,3.17v2h15.41v-2a3.15,3.15,0,0,0-3.34-3.17h-.59c.41-1.1,1.11-3,2.29-6.05h9.36l2.37,6.05h0a3.15,3.15,0,0,0-3.34,3.17v2h42.19a3.13,3.13,0,0,0,1.9-.61v.61h43.2v-2a3.14,3.14,0,0,0-3.33-3.17h-.59c.41-1.12,1.12-3,2.28-6.05H297l2.37,6.05h0a3.15,3.15,0,0,0-3.35,3.17v2h31.45v-2A3.12,3.12,0,0,0,324,34.09h-2.13V16.24l7.62,10.2.4.54c3.43,4.59,6.61,8.85,8,10.75a3.53,3.53,0,0,0,2.78,1.52,2.73,2.73,0,0,0,2.76-2.83V6.52h2.13A3.15,3.15,0,0,0,349,3.35v-2ZM246.21,26V36.5a1.93,1.93,0,0,1-2.09,1.88H202.78V37.26A2.28,2.28,0,0,1,205.27,35h1.3l-3-7.76H193l-.1.28c-1.49,3.9-2.23,5.9-2.6,6.91l-.21.58h1.81a2.3,2.3,0,0,1,2.48,2.31v1.13H180.67V37.26A2.27,2.27,0,0,1,183.15,35h2.06l.13-.2c0-.06.08-.15.13-.27,1.28-2.78,11.75-30.2,12.6-32.45A1.65,1.65,0,0,1,199.56.86a1.67,1.67,0,0,1,1.53,1.21L203,6.74c3.16,7.93,9.06,22.7,11.27,27.89l.09.2h0a5.48,5.48,0,0,0,1.5.12h.6a2.79,2.79,0,0,1,1.29.29l.2.11.2-.1a2.74,2.74,0,0,1,1.3-.3h3V5.77l-.4,0c-.4,0-.92,0-1.16,0H219.4a2.28,2.28,0,0,1-2.49-2.31V2.28h18.41V3.41a2.28,2.28,0,0,1-2.49,2.31H231.4c-.25,0-.76,0-1.16,0l-.4,0V34.93l.41,0h7.07a4.63,4.63,0,0,0,4.35-2.11,10.73,10.73,0,0,0,1.1-4.37c0-.28,0-.53.09-.74a2.21,2.21,0,0,1,2.23-1.7h1.12ZM348.1,3.35a2.27,2.27,0,0,1-2.48,2.31H343l-.41,0V36.42a1.89,1.89,0,0,1-1.9,2,2.66,2.66,0,0,1-2.08-1.18c-1.41-1.91-4.59-6.17-8-10.75l-.4-.54c-3.05-4.07-6.15-8.23-8.39-11.24l-.78-1V34.92l.41,0h2.58a2.27,2.27,0,0,1,2.48,2.31v1.13H296.8V37.26A2.28,2.28,0,0,1,299.29,35h1.29l-3-7.76H287l-.1.28c-1.47,3.86-2.22,5.87-2.61,6.91l-.21.58h1.82a2.29,2.29,0,0,1,2.48,2.31v1.13h-13.7v0l-.59,0-27.2,0V37.27A2.26,2.26,0,0,1,249.36,35h3V5.77l-.4,0c-.4,0-.91,0-1.16,0h-1.43a2.28,2.28,0,0,1-2.49-2.31V2.28h18.41V3.41a2.28,2.28,0,0,1-2.49,2.31h-1.43c-.25,0-.76,0-1.16,0l-.39,0V34.93l.41,0h7.07a4.64,4.64,0,0,0,4.35-2.11,10.55,10.55,0,0,0,1.09-4.37c0-.28,0-.53.09-.74a2.2,2.2,0,0,1,2.23-1.7h1.13v9l.49-.07a2.63,2.63,0,0,1,.49,0h2.06l.13-.2.14-.27c1.24-2.73,11.66-30,12.59-32.46A1.62,1.62,0,0,1,293.57.86a1.68,1.68,0,0,1,1.53,1.2c.28.73.83,2.08,1.53,3.83l.17.42c3.21,8,9.18,23,11.44,28.32l.09.2a5.39,5.39,0,0,0,1.5.12h.6a2.83,2.83,0,0,1,1.25.27l.19.1.19-.1a2.87,2.87,0,0,1,1.26-.27h2.57l.41,0V6.46a2.46,2.46,0,0,0,0-.43l0-.37h-2.9a2.27,2.27,0,0,1-2.48-2.31V2.22h9.33c1.48,0,2.29,1.14,2.95,2s3.17,4.25,6.09,8.09l.25.33c2.65,3.49,5.51,7.27,7.65,10.12l.77,1V5.69l-.41,0h-2.58a2.27,2.27,0,0,1-2.48-2.31V2.22H348.1Z"/><path class="cls-2" d="M353.05,2a2.76,2.76,0,1,1-2.76,2.75A2.76,2.76,0,0,1,353.05,2Zm0,5.21a2.46,2.46,0,1,0-2.45-2.46A2.46,2.46,0,0,0,353.05,7.19Zm-.93-3.62c0-.23,0-.27-.36-.28V3.2h1.39c.49,0,1,.23,1,.75a.89.89,0,0,1-.67.84l.57.86a.77.77,0,0,0,.57.44v.09h-.39a.49.49,0,0,1-.4-.19L353,4.86h-.55v.93c0,.24,0,.28.35.3v.09h-1.08V6.09c.32,0,.36-.06.36-.3ZM353,4.72c.4,0,.65-.25.65-.77a.56.56,0,0,0-.64-.61h-.56V4.72Z"/><path class="cls-2" d="M181.63,26.57C181,32.51,176.45,38,169.43,38c-8,0-16-6.28-16-17.2,0-12.08,8.84-18,16-18A14.91,14.91,0,0,1,180,6.84V4.47a1.18,1.18,0,0,1,1.19-1.35V15.75c-.63,0-1.19-.4-1.19-1.36-.22-4.74-4.64-9.67-9.84-9.67S159,8.41,159,20.46c0,10.37,5.8,15.2,11,15.2,5.68,0,9.15-3.48,10.34-9.36.21-1,1.36-.67,1.25.27m-37.41,8.3c-.2-.5-1.7-4.35-3.46-8.81H128.67c-1.73,4.52-3.21,8.45-3.39,9.06s-.32,1,1.35,1h1.71a1.19,1.19,0,0,1,1.36,1.18H118.26c0-.67.39-1.18,1.35-1.18h1.67c.66,0,1.18,0,1.68-1.13,1.32-2.88,11.91-30.62,12.63-32.53.22-.57.65-.6.92.06,1.58,3.91,10.35,26.05,13.16,32.62.45,1,1.42,1,3.21,1,1,0,1.36.57,1.36,1.18H140.38c0-.65.41-1.18,1.36-1.18,2.93,0,2.91-.13,2.48-1.21m-4.15-10.58c-2.41-6.15-5-12.77-5.16-13.19-.26-.66-.2-.69-.47,0-.35.88-2.81,7.25-5.09,13.22Zm67.68,10.58c-.19-.5-1.7-4.35-3.45-8.81H192.21c-1.73,4.52-3.21,8.45-3.39,9.06s-.33,1,1.34,1h1.72a1.18,1.18,0,0,1,1.35,1.18H181.79c0-.67.4-1.18,1.36-1.18h1.66c.66,0,1.19,0,1.69-1.13,1.31-2.88,11.91-30.62,12.63-32.53.22-.57.64-.6.91.06,1.58,3.91,10.36,26.05,13.17,32.62.44,1,1.41,1,3.2,1,1,0,1.36.57,1.36,1.18H203.91c0-.65.4-1.18,1.36-1.18,2.93,0,2.92-.13,2.48-1.21m-4.14-10.58c-2.41-6.15-5-12.77-5.17-13.19-.25-.66-.2-.69-.46,0-.36.88-2.82,7.25-5.1,13.22Zm98.15,10.58c-.19-.5-1.71-4.35-3.45-8.81H286.22c-1.73,4.52-3.21,8.45-3.39,9.06s-.34,1,1.33,1h1.73a1.19,1.19,0,0,1,1.35,1.18H275.8c0-.67.4-1.18,1.36-1.18h1.66c.66,0,1.18,0,1.69-1.13,1.31-2.88,11.91-30.62,12.63-32.53.21-.57.64-.6.91.06,1.58,3.91,10.36,26.05,13.17,32.62.44,1,1.41,1,3.2,1,1,0,1.36.57,1.36,1.18H297.93c0-.65.39-1.18,1.36-1.18,2.92,0,2.9-.13,2.47-1.21m-4.14-10.58c-2.41-6.15-5-12.77-5.17-13.19-.26-.66-.19-.69-.46,0-.36.88-2.82,7.25-5.1,13.22Zm-53.7,4h0c-.18,2-.32,7.78-6.59,7.78h-6.78c-1.57,0-1.83-.35-1.83-1.13V5.72c0-1.26,1-1.13,4.12-1.13.95,0,1.36-.51,1.36-1.18H218c0,.67.41,1.18,1.36,1.18,3.08,0,4.12-.13,4.12,1.13V34.93c0,1-.62,1.15-1.61,1.15H219.4c-1,0-1.36.51-1.36,1.19h26.08c.53,0,1-.25,1-.76V27.16a1.12,1.12,0,0,0-1.17,1.13m30,0h0c-.18,2-.32,7.78-6.58,7.78H260.5c-1.56,0-1.83-.35-1.83-1.13V5.72c0-1.26,1-1.13,4.12-1.13,1,0,1.36-.51,1.36-1.18H248c0,.67.4,1.18,1.36,1.18,3.07,0,4.12-.13,4.12,1.13V34.93c0,1-.61,1.15-1.61,1.15h-2.51c-1,0-1.36.51-1.36,1.19h26.08c.53,0,1-.25,1-.76V27.16a1.12,1.12,0,0,0-1.17,1.13M116.71,36.08c-3.07,0-4.12.13-4.12-1.14V5.74c0-.71,0-1.21,1.26-1.21h2.86c1,0,1.36-.51,1.36-1.18h-9.62a1.88,1.88,0,0,0-2,1.22c-.63,1.51-9.18,23-9.52,23.66s-.59.08-.8-.42S88.05,7.76,87,5c-.29-.75-.58-1.64-1.89-1.64H75.44c0,.67.4,1.18,1.36,1.18h2.28c1.06,0,1.84.13,1.84,1.13V34.94c0,1.29-.65,1.14-4.12,1.14-1,0-1.36.51-1.36,1.18H88.88c0-.64-.4-1.18-1.36-1.18-3.46,0-4.11.15-4.11-1.14,0-.47,0-24.35,0-24.67,0-.54.23-.63.52,0,2,4.69,10.61,25.4,10.88,26s.61.65.88,0c.47-1.08,11.1-26.63,11.27-26.94.23-.52.45-.26.45.13v25.5c0,1.27-1,1.14-4.12,1.14-1,0-1.35.51-1.35,1.18h16.14c0-.67-.4-1.18-1.36-1.18M333.54,3.35c0,.63.39,1.18,1.35,1.18,3.47,0,4.12-.15,4.12,1.14V26.39c0,.63-.17.64-.53.17C335,21.77,323.65,7,322.24,5c-.59-.82-1.15-1.64-2.07-1.64H312c0,.67.4,1.18,1.35,1.18h3c.69,0,1.1.62,1.14,1.94V34.94c0,1.29-.65,1.14-4.12,1.14-.95,0-1.35.51-1.35,1.18H325.4c0-.64-.4-1.18-1.35-1.18-3.47,0-4.12.15-4.12-1.14v-24c0-.55.09-.56.51,0,3.45,4.69,15.92,21.31,19.11,25.64.82,1.1,1.95.84,1.95-.13V5.67c0-1.29.65-1.14,4.12-1.14,1,0,1.35-.51,1.35-1.18Z"/></g></g></svg>